<svg xmlns="http://www.w3.org/2000/svg" width="384" height="384" viewBox="0 0 384 384">
<rect width="384" height="384" fill="none"/>
<ellipse cx="192.0" cy="370" rx="161" ry="12" fill="#2A2118" opacity=".10"/>
<path d="M100 208 L192 146 L284 208 Z" fill="#7A4B3A"/><path d="M108 208 L192 160 L276 208 Z" fill="#5E382B"/><rect x="100" y="208" width="184" height="116" fill="#EFE3CE"/><rect x="100" y="208" width="184" height="116" fill="#DCCBB0" opacity=".35"/><rect x="120" y="234" width="30" height="34" rx="5" fill="#9FC6D4"/><rect x="120" y="234" width="30" height="34" rx="5" fill="none" stroke="#5E382B" stroke-width="2.5"/><rect x="164" y="234" width="30" height="34" rx="5" fill="#9FC6D4"/><rect x="164" y="234" width="30" height="34" rx="5" fill="none" stroke="#5E382B" stroke-width="2.5"/><rect x="208" y="234" width="30" height="34" rx="5" fill="#9FC6D4"/><rect x="208" y="234" width="30" height="34" rx="5" fill="none" stroke="#5E382B" stroke-width="2.5"/><rect x="196" y="252" width="40" height="72" rx="19" fill="#3F6B4A"/><circle cx="226" cy="288.0" r="4" fill="#EFE3CE"/><path d="M104 208 h176 v-12 h-176 Z" fill="#B5442F"/><path d="M110 196 q14 -30 28 0 q14 -30 28 0 q14 -30 28 0" fill="none" stroke="#B5442F" stroke-width="6" stroke-linecap="round"/>
</svg>