<svg xmlns="http://www.w3.org/2000/svg" width="384" height="384" viewBox="0 0 384 384">
<rect width="384" height="384" fill="none"/>
<ellipse cx="192.0" cy="370" rx="161" ry="12" fill="#2A2118" opacity=".10"/>
<path d="M96 214 L192 130 L288 214 Z" fill="#7A4B3A"/><path d="M104 214 L192 140 L280 214 Z" fill="#5E382B"/><path d="M104 222 L192 222 L280 222 Z" fill="#7A4B3A"/><path d="M112 222 L192 236 L272 222 Z" fill="#5E382B"/><rect x="104" y="222" width="176" height="88" fill="#EFE3CE"/><rect x="104" y="222" width="176" height="88" fill="#DCCBB0" opacity=".35"/><rect x="120" y="238" width="18" height="72" fill="#9FC6D4"/><rect x="152" y="238" width="18" height="72" fill="#9FC6D4"/><rect x="196" y="238" width="18" height="72" fill="#9FC6D4"/><rect x="228" y="238" width="18" height="72" fill="#9FC6D4"/><rect x="104" y="252" width="176" height="10" fill="#B5442F"/><rect x="312" y="300" width="7" height="23" fill="#7A5B44"/><circle cx="316" cy="287" r="18" fill="#7FA36A"/><circle cx="304" cy="296" r="13" fill="#8FB478"/><circle cx="328" cy="296" r="13" fill="#8FB478"/>
</svg>